<mxfile host="app.diagrams.net" agent="Mozilla/5.0 (Windows NT 10.0; Win64; x64) AppleWebKit/537.36 (KHTML, like Gecko) Chrome/140.0.0.0 Safari/537.36 Edg/140.0.0.0" version="28.2.4">
  <diagram name="Página-1" id="Ul41xHy30nwsLE424rLE">
    <mxGraphModel dx="1371" dy="788" grid="1" gridSize="10" guides="1" tooltips="1" connect="1" arrows="1" fold="1" page="1" pageScale="1" pageWidth="827" pageHeight="1169" math="0" shadow="0">
      <root>
        <mxCell id="0" />
        <mxCell id="1" parent="0" />
        <mxCell id="NQ4Uzf_rgghwaT_InINO-3" value="" style="edgeStyle=orthogonalEdgeStyle;rounded=0;orthogonalLoop=1;jettySize=auto;html=1;" edge="1" parent="1" source="NQ4Uzf_rgghwaT_InINO-1" target="NQ4Uzf_rgghwaT_InINO-2">
          <mxGeometry relative="1" as="geometry" />
        </mxCell>
        <mxCell id="NQ4Uzf_rgghwaT_InINO-1" value="Inicio" style="ellipse;whiteSpace=wrap;html=1;" vertex="1" parent="1">
          <mxGeometry x="354" y="50" width="120" height="80" as="geometry" />
        </mxCell>
        <mxCell id="NQ4Uzf_rgghwaT_InINO-5" value="" style="edgeStyle=orthogonalEdgeStyle;rounded=0;orthogonalLoop=1;jettySize=auto;html=1;" edge="1" parent="1" source="NQ4Uzf_rgghwaT_InINO-2" target="NQ4Uzf_rgghwaT_InINO-4">
          <mxGeometry relative="1" as="geometry" />
        </mxCell>
        <mxCell id="NQ4Uzf_rgghwaT_InINO-2" value="Ler Número" style="shape=parallelogram;perimeter=parallelogramPerimeter;whiteSpace=wrap;html=1;fixedSize=1;" vertex="1" parent="1">
          <mxGeometry x="354" y="220" width="120" height="60" as="geometry" />
        </mxCell>
        <mxCell id="NQ4Uzf_rgghwaT_InINO-7" value="" style="edgeStyle=orthogonalEdgeStyle;rounded=0;orthogonalLoop=1;jettySize=auto;html=1;" edge="1" parent="1" source="NQ4Uzf_rgghwaT_InINO-4" target="NQ4Uzf_rgghwaT_InINO-6">
          <mxGeometry relative="1" as="geometry" />
        </mxCell>
        <mxCell id="NQ4Uzf_rgghwaT_InINO-21" value="Sim" style="edgeLabel;html=1;align=center;verticalAlign=middle;resizable=0;points=[];" vertex="1" connectable="0" parent="NQ4Uzf_rgghwaT_InINO-7">
          <mxGeometry x="-0.4571" y="-2" relative="1" as="geometry">
            <mxPoint as="offset" />
          </mxGeometry>
        </mxCell>
        <mxCell id="NQ4Uzf_rgghwaT_InINO-9" value="" style="edgeStyle=orthogonalEdgeStyle;rounded=0;orthogonalLoop=1;jettySize=auto;html=1;" edge="1" parent="1" source="NQ4Uzf_rgghwaT_InINO-4" target="NQ4Uzf_rgghwaT_InINO-8">
          <mxGeometry relative="1" as="geometry" />
        </mxCell>
        <mxCell id="NQ4Uzf_rgghwaT_InINO-20" value="Não" style="edgeLabel;html=1;align=center;verticalAlign=middle;resizable=0;points=[];" vertex="1" connectable="0" parent="NQ4Uzf_rgghwaT_InINO-9">
          <mxGeometry x="0.1" y="-3" relative="1" as="geometry">
            <mxPoint as="offset" />
          </mxGeometry>
        </mxCell>
        <mxCell id="NQ4Uzf_rgghwaT_InINO-4" value="Numero = 0" style="rhombus;whiteSpace=wrap;html=1;" vertex="1" parent="1">
          <mxGeometry x="374" y="350" width="80" height="80" as="geometry" />
        </mxCell>
        <mxCell id="NQ4Uzf_rgghwaT_InINO-17" style="edgeStyle=orthogonalEdgeStyle;rounded=0;orthogonalLoop=1;jettySize=auto;html=1;" edge="1" parent="1" source="NQ4Uzf_rgghwaT_InINO-6" target="NQ4Uzf_rgghwaT_InINO-16">
          <mxGeometry relative="1" as="geometry" />
        </mxCell>
        <mxCell id="NQ4Uzf_rgghwaT_InINO-6" value="&lt;div style=&quot;text-align: left;&quot;&gt;&lt;span style=&quot;background-color: transparent; color: light-dark(rgb(0, 0, 0), rgb(255, 255, 255));&quot;&gt;Escreve&lt;/span&gt;&lt;font style=&quot;background-color: transparent; color: light-dark(rgb(0, 0, 0), rgb(255, 255, 255)); font-size: 13px;&quot;&gt;r &quot; Digitou 0 - vai sair do programa&lt;/font&gt;&lt;/div&gt;" style="shape=parallelogram;perimeter=parallelogramPerimeter;whiteSpace=wrap;html=1;fixedSize=1;" vertex="1" parent="1">
          <mxGeometry x="514" y="360" width="186" height="60" as="geometry" />
        </mxCell>
        <mxCell id="NQ4Uzf_rgghwaT_InINO-11" value="" style="edgeStyle=orthogonalEdgeStyle;rounded=0;orthogonalLoop=1;jettySize=auto;html=1;" edge="1" parent="1" source="NQ4Uzf_rgghwaT_InINO-8" target="NQ4Uzf_rgghwaT_InINO-10">
          <mxGeometry relative="1" as="geometry" />
        </mxCell>
        <mxCell id="NQ4Uzf_rgghwaT_InINO-19" value="Sim" style="edgeLabel;html=1;align=center;verticalAlign=middle;resizable=0;points=[];" vertex="1" connectable="0" parent="NQ4Uzf_rgghwaT_InINO-11">
          <mxGeometry x="-0.0857" y="-1" relative="1" as="geometry">
            <mxPoint as="offset" />
          </mxGeometry>
        </mxCell>
        <mxCell id="NQ4Uzf_rgghwaT_InINO-13" value="" style="edgeStyle=orthogonalEdgeStyle;rounded=0;orthogonalLoop=1;jettySize=auto;html=1;" edge="1" parent="1" source="NQ4Uzf_rgghwaT_InINO-8" target="NQ4Uzf_rgghwaT_InINO-12">
          <mxGeometry relative="1" as="geometry" />
        </mxCell>
        <mxCell id="NQ4Uzf_rgghwaT_InINO-18" value="Não" style="edgeLabel;html=1;align=center;verticalAlign=middle;resizable=0;points=[];" vertex="1" connectable="0" parent="NQ4Uzf_rgghwaT_InINO-13">
          <mxGeometry x="-0.0444" relative="1" as="geometry">
            <mxPoint as="offset" />
          </mxGeometry>
        </mxCell>
        <mxCell id="NQ4Uzf_rgghwaT_InINO-8" value="Numero &amp;gt; 0" style="rhombus;whiteSpace=wrap;html=1;" vertex="1" parent="1">
          <mxGeometry x="214" y="350" width="80" height="80" as="geometry" />
        </mxCell>
        <mxCell id="NQ4Uzf_rgghwaT_InINO-14" style="edgeStyle=orthogonalEdgeStyle;rounded=0;orthogonalLoop=1;jettySize=auto;html=1;" edge="1" parent="1" source="NQ4Uzf_rgghwaT_InINO-10" target="NQ4Uzf_rgghwaT_InINO-2">
          <mxGeometry relative="1" as="geometry">
            <Array as="points">
              <mxPoint x="94" y="250" />
            </Array>
          </mxGeometry>
        </mxCell>
        <mxCell id="NQ4Uzf_rgghwaT_InINO-10" value="Escrever Positivo" style="shape=parallelogram;perimeter=parallelogramPerimeter;whiteSpace=wrap;html=1;fixedSize=1;" vertex="1" parent="1">
          <mxGeometry x="34" y="360" width="120" height="60" as="geometry" />
        </mxCell>
        <mxCell id="NQ4Uzf_rgghwaT_InINO-15" style="edgeStyle=orthogonalEdgeStyle;rounded=0;orthogonalLoop=1;jettySize=auto;html=1;" edge="1" parent="1" source="NQ4Uzf_rgghwaT_InINO-12" target="NQ4Uzf_rgghwaT_InINO-2">
          <mxGeometry relative="1" as="geometry">
            <Array as="points">
              <mxPoint x="760" y="550" />
              <mxPoint x="760" y="250" />
            </Array>
          </mxGeometry>
        </mxCell>
        <mxCell id="NQ4Uzf_rgghwaT_InINO-12" value="Escrever Negativo" style="whiteSpace=wrap;html=1;" vertex="1" parent="1">
          <mxGeometry x="194" y="520" width="120" height="60" as="geometry" />
        </mxCell>
        <mxCell id="NQ4Uzf_rgghwaT_InINO-16" value="Fim" style="ellipse;whiteSpace=wrap;html=1;" vertex="1" parent="1">
          <mxGeometry x="547" y="460" width="120" height="80" as="geometry" />
        </mxCell>
      </root>
    </mxGraphModel>
  </diagram>
</mxfile>
